<svg xmlns="http://www.w3.org/2000/svg" width="23.305" height="26.633" viewBox="0 0 23.305 26.633">
  <path id="bell-light" d="M10.773.832A.865.865,0,0,1,11.606,0a.845.845,0,0,1,.879.832v.873a8.321,8.321,0,0,1,7.491,8.282V11.5a8.593,8.593,0,0,0,2.513,6.065l.14.14a2.229,2.229,0,0,1,.676,1.628,2.3,2.3,0,0,1-2.3,2.3H2.3a2.3,2.3,0,0,1-2.3-2.3,2.226,2.226,0,0,1,.675-1.628l.143-.14A8.59,8.59,0,0,0,3.329,11.5V9.988A8.321,8.321,0,0,1,10.82,1.706Zm.832,2.5A6.688,6.688,0,0,0,4.947,9.988V11.5a10.2,10.2,0,0,1-2.952,7.241l-.143.14a.7.7,0,0,0-.234.453.681.681,0,0,0,.686.64H21a.639.639,0,0,0,.64-.64.647.647,0,0,0-.187-.453l-.14-.14a10.224,10.224,0,0,1-3-7.241V9.988a6.668,6.668,0,0,0-6.705-6.658Zm0,21.64a1.686,1.686,0,0,0,1.618-1.108.8.8,0,0,1,1.061-.51.838.838,0,0,1,.51,1.061,3.333,3.333,0,0,1-6.284,0,.838.838,0,0,1,.51-1.061.8.8,0,0,1,1.061.51A1.655,1.655,0,0,0,11.606,24.969Z" fill="rgba(0,0,0,0.9)"/>
</svg>
