<svg xmlns="http://www.w3.org/2000/svg" width="28.889" height="25.779" viewBox="0 0 28.889 25.779">
  <path id="cart-shopping-light_2_" data-name="cart-shopping-light (2)" d="M4.028,0a.805.805,0,0,1,.785.627l.222.984H27.28A1.633,1.633,0,0,1,28.83,3.658l-2.719,9.669A1.612,1.612,0,0,1,24.561,14.5H7.965L8.7,17.723H24.974a.806.806,0,1,1,0,1.611H8.056a.807.807,0,0,1-.785-.629L3.385,1.611H.806A.806.806,0,1,1,.806,0ZM5.4,3.222l2.155,9.667h17L27.28,3.222ZM6.445,22.959a2.82,2.82,0,1,1,2.82,2.82A2.821,2.821,0,0,1,6.445,22.959Zm2.82,1.208a1.208,1.208,0,1,0-1.208-1.208A1.205,1.205,0,0,0,9.264,24.168Zm16.515-1.208a2.82,2.82,0,1,1-2.82-2.82A2.821,2.821,0,0,1,25.779,22.959Zm-2.82-1.208a1.208,1.208,0,1,0,1.208,1.208A1.205,1.205,0,0,0,22.96,21.751Z" fill="rgba(0,0,0,0.9)"/>
</svg>
