<svg xmlns="http://www.w3.org/2000/svg" width="26.244" height="26.244" viewBox="0 0 26.244 26.244">
  <path id="globe-light" d="M13.122,0A13.122,13.122,0,1,1,0,13.122,13.121,13.121,0,0,1,13.122,0Zm0,24.6c.856,0,2.071-.738,3.173-2.937a14.325,14.325,0,0,0,1.189-3.624H8.714a16.4,16.4,0,0,0,1.235,3.624c1.1,2.2,2.317,2.937,3.173,2.937Zm-4.7-8.2h9.4a23.973,23.973,0,0,0,.22-3.281,23.973,23.973,0,0,0-.22-3.281h-9.4a24.523,24.523,0,0,0,0,6.561Zm9.062-8.2a13.747,13.747,0,0,0-1.189-3.624c-1.1-2.2-2.317-2.937-3.173-2.937s-2.071.737-3.173,2.937A15.628,15.628,0,0,0,8.714,8.2Zm1.948,1.64a19.52,19.52,0,0,1,.251,3.281,19.52,19.52,0,0,1-.251,3.281h4.7a11.526,11.526,0,0,0,0-6.561Zm-2.645-7.6A15.2,15.2,0,0,1,19.206,8.2H23.5a11.5,11.5,0,0,0-6.71-5.963Zm-7.33,0A11.516,11.516,0,0,0,2.745,8.2H7.038A15.2,15.2,0,0,1,9.457,2.238ZM1.64,13.122A11.491,11.491,0,0,0,2.116,16.4h4.65a26.347,26.347,0,0,1,0-6.561H2.116a11.491,11.491,0,0,0-.476,3.281ZM23.5,18.043h-4.29A15.178,15.178,0,0,1,16.787,24,11.487,11.487,0,0,0,23.5,18.043Zm-16.459,0H2.745A11.5,11.5,0,0,0,9.457,24a15.178,15.178,0,0,1-2.419-5.961Z"/>
</svg>
