<svg xmlns="http://www.w3.org/2000/svg" width="247.44" height="62.145" viewBox="0 0 247.44 62.145">
  <g id="Group_5126" data-name="Group 5126" transform="translate(-49 -20.855)">
    <g id="Group_4589" data-name="Group 4589" transform="translate(49 20.855)">
      <g id="Group_5125" data-name="Group 5125" transform="translate(0 0)">
        <path id="Path_7559" data-name="Path 7559" d="M8.28,28.1a1.267,1.267,0,1,0,1.267,1.267A1.265,1.265,0,0,0,8.28,28.1m5.944-11.673a1.267,1.267,0,1,0,1.267,1.266,1.265,1.265,0,0,0-1.267-1.266M21.548,9.5a1.267,1.267,0,1,0,1.274,1.267A1.27,1.27,0,0,0,21.548,9.5m9.574,16.934a1.272,1.272,0,1,0,.107.79ZM38,5.41a1.267,1.267,0,1,0,1.267,1.267A1.276,1.276,0,0,0,38,5.41m3.85,27.6a1.27,1.27,0,0,0,0,2.541,1.27,1.27,0,1,0,0-2.541m8.521-2.869a1.271,1.271,0,1,0,1.267,1.267,1.276,1.276,0,0,0-1.267-1.267M52.1,9.5a1.267,1.267,0,1,0,1.267,1.267A1.27,1.27,0,0,0,52.1,9.5m10.35,31.455a1.263,1.263,0,1,0,1.267,1.259,1.259,1.259,0,0,0-1.267-1.259m3.153-19.169a1.263,1.263,0,1,0,1.266,1.26,1.259,1.259,0,0,0-1.266-1.26M8.28,28.1a1.267,1.267,0,1,0,1.267,1.267A1.265,1.265,0,0,0,8.28,28.1m5.944-11.673a1.267,1.267,0,1,0,1.267,1.266,1.265,1.265,0,0,0-1.267-1.266M21.548,9.5a1.267,1.267,0,1,0,1.274,1.267A1.27,1.27,0,0,0,21.548,9.5m9.574,16.934a1.272,1.272,0,1,0,.107.79ZM38,5.41a1.267,1.267,0,1,0,1.267,1.267A1.276,1.276,0,0,0,38,5.41m3.85,27.6a1.27,1.27,0,0,0,0,2.541,1.27,1.27,0,1,0,0-2.541m8.521-2.869a1.271,1.271,0,1,0,1.267,1.267,1.276,1.276,0,0,0-1.267-1.267M52.1,9.5a1.267,1.267,0,1,0,1.267,1.267A1.27,1.27,0,0,0,52.1,9.5m10.35,31.455a1.263,1.263,0,1,0,1.267,1.259,1.259,1.259,0,0,0-1.267-1.259m3.153-19.169a1.263,1.263,0,1,0,1.266,1.26,1.259,1.259,0,0,0-1.266-1.26m7.438,8.228a10.348,10.348,0,0,0-2.327-5.865,1.422,1.422,0,0,1-.292-1.238,10.771,10.771,0,0,0,.3-3.367,10.619,10.619,0,0,0-7.616-9.5,1.458,1.458,0,0,1-.982-.94C61.081,6.036,57.551,3.481,53.08,2.9a14.2,14.2,0,0,0-3.424-.029,1.451,1.451,0,0,1-1.117-.342A11.676,11.676,0,0,0,41.037,0a12.34,12.34,0,0,0-5.815,1.388,1.438,1.438,0,0,1-1.21.05A12.564,12.564,0,0,0,29.093.476c-4,0-7.46,1.752-9.061,4.3a1.488,1.488,0,0,1-1.253.7c-.263,0-.527.014-.79.021A11.917,11.917,0,0,0,7.341,14.208,1.407,1.407,0,0,1,6.6,15.1,11.909,11.909,0,1,0,17.732,36.145a1.476,1.476,0,0,1,1.5.043,10.4,10.4,0,0,0,11.41-.128,1.522,1.522,0,0,1,1.922.192c1.1,1.1,5.374,3.595,6.712,4.8,1.787,1.609,2.99,3.331,3.467,7.011A93.337,93.337,0,0,1,43.1,58.289h4.335l.626-13.318,8.129-8.784.59-3.609-3.722-.327a2.831,2.831,0,1,1,.028-1.558l3.943.348.562-3.523-3.979-5.445L43.2,19.524l-3.78,6.151,2.192,5.815c.079-.007.164-.029.242-.029a2.855,2.855,0,1,1-1.694.584L38.047,26.45l-5.253.74a2.827,2.827,0,1,1-.327-1.523l5.623-.8,3.773-6.143-4.57-5.053L27.52,15.823l-6.129,9.766L13.775,26,10.8,28.116a2.8,2.8,0,0,1-2.52,4.078,2.826,2.826,0,0,1,0-5.652,2.732,2.732,0,0,1,1.452.42l3.509-2.491,6.036-.328-3.63-4.021a2.8,2.8,0,0,1-1.424.4,2.826,2.826,0,1,1,2.826-2.826,2.764,2.764,0,0,1-.334,1.3l4.114,4.555L26,15.31l-2.847-2.228a2.819,2.819,0,1,1,1.217-2.313,2.745,2.745,0,0,1-.228,1.11l3.089,2.42,9.616-2.129.306-2.818a2.812,2.812,0,1,1,1.558.043l-.342,3.153,4.876,5.381,3.672.911,3.1-6.192a2.788,2.788,0,0,1-.74-1.879A2.822,2.822,0,1,1,52.1,13.588a2.755,2.755,0,0,1-.761-.113l-2.869,5.744L54.533,20.7l4.1,5.6,4.256-2.513a2.774,2.774,0,0,1-.107-.74,2.826,2.826,0,1,1,2.826,2.826,2.8,2.8,0,0,1-1.908-.755L59.123,27.81l-1.367,8.477,3.324,3.481a2.818,2.818,0,1,1-1.452,2.449,2.866,2.866,0,0,1,.355-1.338l-3.046-3.2-7.346,7.929-.6,12.677H55.08a18.6,18.6,0,0,1,1.331-2.911,19.4,19.4,0,0,1,6.164-6.542,14.393,14.393,0,0,1,1.95-1.11.656.656,0,0,0,.142-.1,11.893,11.893,0,0,0,4.89-8.563,1.546,1.546,0,0,1,.456-.968,10.3,10.3,0,0,0,3.032-8.079m-7.438-8.228a1.263,1.263,0,1,0,1.266,1.26,1.259,1.259,0,0,0-1.266-1.26M62.455,40.957a1.263,1.263,0,1,0,1.267,1.259,1.259,1.259,0,0,0-1.267-1.259M52.1,9.5a1.267,1.267,0,1,0,1.267,1.267A1.27,1.27,0,0,0,52.1,9.5M50.376,30.144a1.271,1.271,0,1,0,1.267,1.267,1.276,1.276,0,0,0-1.267-1.267m-8.521,2.869a1.27,1.27,0,0,0,0,2.541,1.27,1.27,0,1,0,0-2.541M38,5.41a1.267,1.267,0,1,0,1.267,1.267A1.276,1.276,0,0,0,38,5.41M31.121,26.436a1.272,1.272,0,1,0,.107.79ZM21.548,9.5a1.267,1.267,0,1,0,1.274,1.267A1.27,1.27,0,0,0,21.548,9.5m-7.324,6.926a1.267,1.267,0,1,0,1.267,1.266,1.265,1.265,0,0,0-1.267-1.266M8.28,28.1a1.267,1.267,0,1,0,1.267,1.267A1.265,1.265,0,0,0,8.28,28.1" transform="translate(0 0)" fill="#a7a9ac"/>
        <path id="Path_7560" data-name="Path 7560" d="M142.135,10.172c-3.434-2.583-7.825-3.8-14.6-3.8a72.173,72.173,0,0,0-10.891.735V18h8.087V12.871a16.989,16.989,0,0,1,3.647-.319c6.935,0,11.268,3.918,11.22,11.317,0,8.521-4.759,12.535-12.062,12.487a14.334,14.334,0,0,1-2.8-.164V31h-8.087V42.121a70.619,70.619,0,0,0,9.15.523c6.974,0,12.69-1.48,16.444-4.594,3.433-2.912,5.919-7.622,5.919-14.442,0-6.3-2.321-10.679-6.026-13.435" transform="translate(-32.569 -1.779)" fill="#7f13ab"/>
        <path id="Path_7561" data-name="Path 7561" d="M179.083,19.5c-8.3,0-13.8,5.349-13.8,13.7S171.1,46.52,178.657,46.52c6.925,0,13.648-4.333,13.648-13.8,0-7.777-5.291-13.223-13.222-13.223m-.213,21.261c-3.434,0-5.291-3.327-5.291-7.767,0-3.811,1.431-7.777,5.291-7.777,3.646,0,5.136,3.908,5.136,7.777,0,4.653-2.012,7.767-5.136,7.767" transform="translate(-46.147 -5.443)" fill="#7f13ab"/>
        <path id="Path_7562" data-name="Path 7562" d="M223.007,25.688a11.022,11.022,0,0,1,4.5.793l1.268-5.975a18.636,18.636,0,0,0-6.135-1c-9.624,0-14.807,6.187-14.807,13.749,0,8.144,5.342,13.221,13.7,13.221a19.6,19.6,0,0,0,7.192-1.163l-.951-5.923a12.412,12.412,0,0,1-4.6.793c-3.913,0-7.086-2.485-7.086-7.245-.053-4.23,2.7-7.245,6.928-7.245" transform="translate(-58.027 -5.445)" fill="#7f13ab"/>
        <path id="Path_7563" data-name="Path 7563" d="M256.658,21c-4.6-1.745-6.61-2.75-6.61-5.024,0-1.851,1.692-3.437,5.183-3.437a16.936,16.936,0,0,1,7.456,1.692l1.8-6.505a21.852,21.852,0,0,0-9.1-1.8c-8.408,0-13.485,4.654-13.485,10.736,0,5.183,3.861,8.461,9.783,10.524,4.284,1.533,5.976,2.8,5.976,5.023,0,2.327-1.957,3.861-5.659,3.861a20.565,20.565,0,0,1-8.936-2.221l-1.64,6.663a23.337,23.337,0,0,0,10.1,2.168c9.784,0,14.384-5.077,14.384-11.053,0-5.024-2.962-8.3-9.254-10.629" transform="translate(-67.408 -1.655)" fill="#7f13ab"/>
        <path id="Path_7564" data-name="Path 7564" d="M290.3,10.037l-7.879,1.8v5.6h-3.437v5.923h3.437V33.94c0,3.648.741,6.134,2.221,7.668a8.362,8.362,0,0,0,6.029,2.221,15.772,15.772,0,0,0,5.236-.688l-.053-6.081a13.109,13.109,0,0,1-2.38.212c-2.433,0-3.173-1.429-3.173-4.548v-9.36h5.765V17.44H290.3Z" transform="translate(-77.895 -2.802)" fill="#7f13ab"/>
        <path id="Path_7565" data-name="Path 7565" d="M326.881,20.037v2.989a11.264,11.264,0,0,0-8.212-3.7,11.432,11.432,0,0,0-8.831,3.869,13.772,13.772,0,0,0-3.521,9.654,14.227,14.227,0,0,0,3.521,9.847,11.764,11.764,0,0,0,17.043.425v2.7h6.084V20.037Zm-3.25,18.581a6.242,6.242,0,0,1-4.537,1.712,5.938,5.938,0,0,1-4.662-2.108,7.893,7.893,0,0,1-1.808-5.388,7.575,7.575,0,0,1,1.857-5.2,6.032,6.032,0,0,1,4.662-2.08,6.183,6.183,0,0,1,4.817,2.061,7.809,7.809,0,0,1,1.847,5.339,8.494,8.494,0,0,1-.57,3.212l1.973,3.356Z" transform="translate(-85.525 -5.394)" fill="#7f13ab"/>
      </g>
    </g>
    <text id="Academy" transform="translate(216 79)" fill="#020202" font-size="17" font-family="ArialMT, Arial" letter-spacing="0.1em"><tspan x="-47.135" y="0">ACADEMY</tspan></text>
  </g>
</svg>
